<svg width="14" height="12" viewBox="0 0 14 12" fill="none" xmlns="http://www.w3.org/2000/svg">
<g clip-path="url(#clip0_404_79)">
<path d="M11.1886 3.88546C11.0502 3.83628 10.9107 3.7907 10.7702 3.74878C10.7938 3.64878 10.8155 3.54999 10.8348 3.45294C11.1516 1.8592 10.9445 0.575254 10.2372 0.152517C9.55897 -0.252746 8.44986 0.169833 7.32972 1.1802C7.21933 1.27995 7.11138 1.38258 7.00599 1.48799C6.93544 1.4179 6.86364 1.34917 6.79063 1.28183C5.61667 0.201517 4.43996 -0.253799 3.73339 0.170149C3.05582 0.576675 2.85518 1.78368 3.14037 3.2941C3.16874 3.44369 3.20078 3.59251 3.23645 3.74041C3.06989 3.78946 2.90916 3.84167 2.75535 3.89725C1.37897 4.39462 0.5 5.17404 0.5 5.98252C0.5 6.81752 1.44362 7.65504 2.87717 8.16289C2.9934 8.20388 3.11058 8.24187 3.22863 8.27683C3.1903 8.43614 3.15627 8.59651 3.12656 8.75778C2.85468 10.242 3.06699 11.4205 3.74274 11.8244C4.44068 12.2416 5.6121 11.8128 6.7527 10.7794C6.84518 10.6954 6.93563 10.609 7.02397 10.5203C7.1381 10.6344 7.25528 10.7453 7.37537 10.8526C8.48027 11.838 9.57146 12.2359 10.2465 11.8308C10.9438 11.4125 11.1705 10.1465 10.8762 8.6062C10.8531 8.48553 10.8271 8.36546 10.7983 8.2461C10.8806 8.22083 10.9613 8.19483 11.04 8.16778C12.5303 7.65604 13.5 6.82867 13.5 5.98252C13.5 5.1711 12.5926 4.38641 11.1886 3.88546ZM10.8654 7.62146C10.7942 7.64582 10.7214 7.66941 10.647 7.69225C10.4825 7.15241 10.2605 6.57841 9.98873 5.98531C10.248 5.40636 10.4615 4.83967 10.6214 4.30336C10.7544 4.34325 10.8834 4.38531 11.0079 4.42968C12.2109 4.85894 12.9447 5.49352 12.9447 5.98252C12.9447 6.50336 12.1522 7.17952 10.8654 7.62146ZM10.3315 8.71799C10.4616 9.39904 10.4801 10.0148 10.3939 10.4963C10.3165 10.9288 10.1608 11.2172 9.96827 11.3327C9.55861 11.5785 8.68248 11.259 7.7376 10.4163C7.6259 10.3165 7.5169 10.2135 7.41072 10.1074C7.77705 9.69215 8.14314 9.20947 8.50043 8.67336C9.1289 8.61557 9.72264 8.52104 10.2611 8.39204C10.2876 8.50299 10.3111 8.61164 10.3315 8.71799ZM4.93198 11.2903C4.53173 11.4367 4.21292 11.4409 4.02021 11.3258C3.61015 11.0807 3.43968 10.1344 3.6722 8.86515C3.69985 8.71516 3.73149 8.566 3.76711 8.41783C4.29961 8.53994 4.88902 8.62773 5.51896 8.68068C5.8787 9.20525 6.25534 9.68741 6.63493 10.1096C6.55426 10.1905 6.47168 10.2694 6.38727 10.346C5.88286 10.803 5.37744 11.1272 4.93198 11.2903ZM3.05684 7.61825C2.42293 7.39368 1.89943 7.10183 1.54061 6.78336C1.21815 6.4972 1.05539 6.21304 1.05539 5.98252C1.05539 5.49189 1.7611 4.8661 2.93816 4.44078C3.08101 4.3892 3.23051 4.34052 3.38564 4.29483C3.54835 4.84325 3.76173 5.41668 4.01924 5.99652C3.75838 6.58494 3.54195 7.16752 3.37767 7.72241C3.26992 7.69042 3.16294 7.65569 3.05684 7.61825ZM3.68541 3.18352C3.4411 1.88946 3.60334 0.913307 4.01168 0.668307C4.44657 0.407359 5.40826 0.779412 6.42191 1.71225C6.48801 1.77322 6.55303 1.83542 6.61696 1.89883C6.23925 2.3192 5.86606 2.79778 5.50952 3.31925C4.89811 3.37799 4.31286 3.47231 3.77478 3.59868C3.74162 3.46111 3.71182 3.32264 3.68541 3.18352ZM9.29303 4.61873C9.16593 4.3912 9.03412 4.16653 8.8977 3.94489C9.31248 3.99925 9.70989 4.07141 10.0831 4.15962C9.97106 4.53183 9.83141 4.92094 9.66703 5.31989C9.54688 5.08361 9.42219 4.84984 9.29303 4.61873ZM7.00625 2.31025C7.26239 2.59789 7.51893 2.91899 7.77127 3.26741C7.25939 3.24235 6.74666 3.24225 6.23478 3.2671C6.48736 2.92189 6.74609 2.6012 7.00625 2.31025ZM4.70479 4.62262C4.57724 4.85188 4.45488 5.08418 4.33779 5.31936C4.17611 4.92183 4.03773 4.53094 3.92474 4.15346C4.29564 4.06746 4.69118 3.99715 5.10332 3.94378C4.96538 4.16678 4.8325 4.39316 4.70479 4.62262ZM5.11515 8.06215C4.68935 8.01289 4.28787 7.9462 3.91707 7.86252C4.03184 7.47831 4.17326 7.0791 4.33845 6.67304C4.456 6.90839 4.57887 7.14084 4.70697 7.3702C4.8387 7.60599 4.9751 7.83694 5.11515 8.06215ZM7.02158 9.69531C6.75833 9.40099 6.49579 9.07536 6.2394 8.72515C6.48833 8.73525 6.74208 8.74041 7 8.74041C7.26498 8.74041 7.52691 8.73425 7.78472 8.72236C7.53158 9.07889 7.276 9.40499 7.02158 9.69531ZM9.67226 6.65231C9.84604 7.06283 9.99249 7.45994 10.1088 7.83757C9.73188 7.92673 9.32492 7.99852 8.89612 8.05183C9.03353 7.82608 9.16658 7.5975 9.29521 7.36625C9.426 7.1312 9.55171 6.89316 9.67226 6.65231ZM8.81416 7.07868C8.61723 7.43321 8.40924 7.78103 8.19052 8.12157C7.7943 8.15067 7.39721 8.16512 7 8.16489C6.59543 8.16489 6.20192 8.15183 5.82299 8.12636C5.59854 7.78662 5.38658 7.43819 5.18757 7.08183C4.98946 6.72737 4.80448 6.36524 4.63293 5.9962C4.80405 5.62708 4.98852 5.26477 5.18594 4.91004L5.18589 4.9101C5.38321 4.55526 5.59348 4.20832 5.81624 3.87004C6.20284 3.83973 6.59929 3.82394 6.99995 3.82394C7.40244 3.82394 7.79945 3.83989 8.18595 3.87041C8.40645 4.20819 8.61538 4.55393 8.81233 4.90699C9.01038 5.26096 9.19729 5.6215 9.37275 5.98804C9.19909 6.35833 9.01277 6.72211 8.81416 7.07868ZM9.95979 0.651096C10.3951 0.911307 10.5644 1.96062 10.2909 3.33667C10.2733 3.42453 10.2539 3.51383 10.2325 3.60457C9.69308 3.47552 9.10742 3.37957 8.49424 3.31994C8.13704 2.79273 7.7669 2.31341 7.39533 1.89846C7.49272 1.80118 7.59241 1.70641 7.69433 1.61425C8.6541 0.748622 9.5511 0.406833 9.95979 0.651096ZM7 4.77936C7.64111 4.77936 8.16086 5.31804 8.16086 5.98252C8.16086 6.64699 7.64111 7.18568 7 7.18568C6.35889 7.18568 5.83914 6.64699 5.83914 5.98252C5.83914 5.31804 6.35889 4.77936 7 4.77936Z" fill="#00D8FF"/>
</g>
<defs>
<clipPath id="clip0_404_79">
<rect width="13" height="12" fill="white" transform="translate(0.5)"/>
</clipPath>
</defs>
</svg>
