<svg width="50" height="62" viewBox="0 0 50 62" fill="none" xmlns="http://www.w3.org/2000/svg">
<path d="M31.936 3.74744C33.4972 5.27967 34.3752 7.17487 35.1131 9.20256C35.2623 9.6126 35.4148 10.0214 35.5671 10.4304C35.6508 10.6552 35.7344 10.8801 35.8178 11.105C36.3189 12.4538 36.8381 13.7956 37.3562 15.1379C38.3339 17.6712 39.3062 20.2064 40.261 22.7484C40.562 23.5482 40.8671 24.3463 41.1729 25.1443C41.3957 25.7262 41.6173 26.3086 41.8385 26.8911C41.9954 27.3043 42.153 27.7172 42.312 28.1295C42.49 28.5919 42.6658 29.0551 42.8411 29.5185C42.8951 29.657 42.949 29.7956 43.0046 29.9384C43.3891 30.9644 43.5625 31.8334 43.129 32.8771C42.7569 33.509 42.1279 33.9693 41.4246 34.1627C40.7813 34.2754 40.1563 34.3088 39.5039 34.3238C35.74 34.4188 31.7955 35.4782 28.9465 38.0621C28.8408 38.1511 28.7351 38.2401 28.6261 38.3317C27.4514 39.3399 26.5047 40.5002 25.6726 41.799C25.6233 41.8747 25.574 41.9504 25.5231 42.0283C24.2499 44.0848 23.5461 46.5023 22.7156 48.7611C21.3112 52.5795 21.3112 52.5795 20.6933 54.0491C20.6323 54.1942 20.6323 54.1942 20.5701 54.3422C19.4676 56.9138 17.2483 59.1989 14.6472 60.2856C11.5891 61.333 8.49035 61.3195 5.55014 59.8987C4.99682 59.5898 4.49162 59.2461 3.99038 58.8589C3.87997 58.7738 3.76955 58.6886 3.65579 58.601C1.63809 56.9158 0.311345 54.4749 0.0391994 51.8628C-0.251521 48.5535 1.132 45.7094 2.29931 42.6894C2.86289 41.2312 3.41873 39.7703 3.96601 38.3058C4.12761 37.8736 4.28923 37.4413 4.4509 37.0091C4.49449 36.8925 4.53808 36.776 4.58299 36.6559C5.20285 34.9997 5.8276 33.3454 6.45154 31.6908C7.60478 28.6325 8.75655 25.5736 9.90446 22.5133C9.95839 22.3696 10.0123 22.2259 10.0679 22.0779C10.6647 20.4872 11.259 18.8957 11.8501 17.3029C11.9052 17.1548 11.9602 17.0066 12.0169 16.854C12.0684 16.7152 12.1198 16.5765 12.1728 16.4335C12.218 16.3115 12.2632 16.1896 12.3098 16.0639C12.4012 15.8106 12.4889 15.5559 12.5741 15.3004C12.7329 14.824 12.9176 14.3588 13.1022 13.892C13.4602 12.9796 13.8035 12.0626 14.14 11.1421C14.2789 10.7648 14.4181 10.3877 14.5573 10.0105C14.651 9.75552 14.744 9.50025 14.8362 9.24473C16.0544 5.87645 17.7378 3.33645 21.0665 1.73783C24.8347 0.137944 28.9319 0.973411 31.936 3.74744Z" fill="#FF4000"/>
<path d="M46.6238 42.8714C46.7154 42.951 46.8071 43.0305 46.9015 43.1125C48.8003 44.8621 49.8531 47.4518 49.9935 49.9931C50.0898 52.7951 49.1091 55.398 47.233 57.4778C45.1714 59.6604 42.5417 60.9312 39.548 61.0658C36.9917 61.1291 34.53 60.2499 32.5859 58.5989C32.4955 58.5257 32.405 58.4525 32.3118 58.377C32.094 58.198 31.8841 58.0094 31.6761 57.819C31.6761 57.7333 31.6761 57.6475 31.6761 57.5591C31.5903 57.5591 31.5045 57.5591 31.4161 57.5591C29.4817 55.4158 28.5885 52.5417 28.6947 49.6953C28.8589 47.917 29.4481 46.3378 30.3763 44.8211C30.4796 44.6499 30.4796 44.6499 30.585 44.4753C30.9389 43.9158 31.2745 43.5336 31.8061 43.1313C31.865 43.0241 31.924 42.9169 31.9848 42.8064C32.2219 42.4416 32.4634 42.3016 32.8449 42.1037C33.1318 41.9474 33.391 41.7674 33.6583 41.5797C37.7612 38.8421 43.0728 39.6416 46.6238 42.8714Z" fill="#FF4000"/>
</svg>
