<svg width="11" height="12" viewBox="0 0 11 12" fill="none" xmlns="http://www.w3.org/2000/svg">
<g clip-path="url(#clip0_404_105)">
<path d="M5.5 11.9777C5.3292 11.9777 5.16979 11.9337 5.02176 11.8567L3.50724 10.9874C3.2795 10.8663 3.39337 10.8223 3.46169 10.8003C3.76913 10.7013 3.82607 10.6793 4.14489 10.5032C4.1791 10.4812 4.22464 10.4922 4.25876 10.5142L5.42029 11.1854C5.46584 11.2074 5.52277 11.2074 5.55693 11.1854L10.1004 8.64355C10.146 8.62154 10.1688 8.57753 10.1688 8.52251V3.44967C10.1688 3.39465 10.146 3.35064 10.1004 3.32863L5.55693 0.797709C5.51139 0.775702 5.45445 0.775702 5.42029 0.797709L0.876777 3.32867C0.831231 3.35068 0.808457 3.4057 0.808457 3.44971V8.52251C0.808457 8.56653 0.831231 8.62154 0.876777 8.64355L2.11802 9.33677C2.78988 9.66687 3.21114 9.28175 3.21114 8.89663V3.88981C3.21114 3.82379 3.26812 3.75776 3.34782 3.75776H3.92859C3.99691 3.75776 4.06523 3.81278 4.06523 3.88981V8.89659C4.06523 9.7659 3.57556 10.2721 2.72151 10.2721C2.45962 10.2721 2.25466 10.2721 1.67393 9.99698L0.478242 9.33677C0.182188 9.17167 0 8.86358 0 8.53347V3.46071C0 3.13061 0.182188 2.82251 0.478242 2.65742L5.02176 0.115536C5.30643 -0.0385121 5.69357 -0.0385121 5.97824 0.115536L10.5218 2.65742C10.8178 2.82247 11 3.13057 11 3.46071V8.53352C11 8.86362 10.8178 9.17172 10.5218 9.33677L5.97824 11.8787C5.83021 11.9448 5.65941 11.9778 5.5 11.9778M6.90061 8.4895C4.90785 8.4895 4.49793 7.60922 4.49793 6.86095C4.49793 6.79493 4.55486 6.72891 4.63457 6.72891H5.22668C5.295 6.72891 5.35197 6.77292 5.35197 6.83894C5.44307 7.42212 5.70496 7.70826 6.912 7.70826C7.86852 7.70826 8.27849 7.49919 8.27849 7.00403C8.27849 6.7179 8.16462 6.50884 6.67288 6.36575C5.43168 6.24471 4.65734 5.98063 4.65734 5.02333C4.65734 4.13197 5.43164 3.6038 6.72981 3.6038C8.18735 3.6038 8.90476 4.08795 8.99585 5.14433C8.99585 5.17735 8.98446 5.21036 8.96169 5.24336C8.93892 5.26536 8.90476 5.28737 8.8706 5.28737H8.27849C8.22151 5.28737 8.16462 5.24336 8.15319 5.18834C8.01655 4.58315 7.66356 4.38509 6.72981 4.38509C5.68223 4.38509 5.55693 4.7372 5.55693 5.00128C5.55693 5.32042 5.70496 5.41941 7.11696 5.59547C8.51761 5.77152 9.17804 6.02464 9.17804 6.97098C9.16665 7.93933 8.34681 8.4895 6.90061 8.4895Z" fill="#539E43"/>
</g>
<defs>
<clipPath id="clip0_404_105">
<rect width="11" height="12" fill="white"/>
</clipPath>
</defs>
</svg>
