<svg width="6" height="12" viewBox="0 0 6 12" fill="none" xmlns="http://www.w3.org/2000/svg">
<g clip-path="url(#clip0_404_99)">
<path d="M4.11614 1.33569C3.57685 0.738947 3.11243 0.132848 3.01756 0.00699016C3.0153 0.00478136 3.01259 0.00302281 3.00959 0.0018212C3.00658 0.000619599 3.00334 0 3.00007 0C2.9968 0 2.99357 0.000619599 2.99056 0.0018212C2.98756 0.00302281 2.98484 0.00478136 2.98259 0.00699016C2.88771 0.13287 2.4233 0.738947 1.88398 1.33569C-2.74509 6.84161 2.61307 10.5573 2.61307 10.5573L2.658 10.5853C2.69794 11.1587 2.79783 11.984 2.79783 11.984H3.19732C3.19732 11.984 3.29717 11.1634 3.33713 10.5853L3.38208 10.5527C3.38707 10.5574 8.74524 6.84164 4.11614 1.33569ZM2.99757 10.4734C2.99757 10.4734 2.75787 10.2823 2.69295 10.1844V10.175L2.98259 4.17958C2.98259 4.16094 3.01257 4.16094 3.01257 4.17958L3.30218 10.175V10.1844C3.23726 10.2823 2.99757 10.4734 2.99757 10.4734" fill="#01EC64"/>
</g>
<defs>
<clipPath id="clip0_404_99">
<rect width="6" height="12" fill="white"/>
</clipPath>
</defs>
</svg>
