<svg width="13" height="12" viewBox="0 0 13 12" fill="none" xmlns="http://www.w3.org/2000/svg">
<g clip-path="url(#clip0_404_73)">
<path d="M0.5 0H12.5V12H0.5V0Z" fill="#F7DF1E"/>
<path d="M3.65532 10.0281L4.5736 9.47234C4.75079 9.78645 4.91195 10.0522 5.29852 10.0522C5.66907 10.0522 5.90274 9.9073 5.90274 9.34348V5.5092H7.03041V9.35942C7.03041 10.5274 6.34576 11.0591 5.34685 11.0591C4.44474 11.0591 3.9211 10.5919 3.65527 10.028M7.64293 9.90725L8.56112 9.37564C8.80285 9.77037 9.11701 10.0603 9.67276 10.0603C10.1401 10.0603 10.438 9.82672 10.438 9.5045C10.438 9.11787 10.1319 8.98091 9.61637 8.75544L9.33451 8.6345C8.5209 8.28823 7.98123 7.85323 7.98123 6.93495C7.98123 6.08914 8.62562 5.4447 9.63254 5.4447C10.3494 5.4447 10.865 5.69445 11.2355 6.3469L10.3574 6.91081C10.1641 6.56445 9.95471 6.42753 9.63249 6.42753C9.30221 6.42753 9.09277 6.63697 9.09277 6.91081C9.09277 7.24911 9.30221 7.38612 9.78549 7.59556L10.0674 7.71636C11.026 8.12722 11.5657 8.54605 11.5657 9.48842C11.5657 10.5035 10.7682 11.0592 9.6969 11.0592C8.64976 11.0592 7.97312 10.5598 7.64288 9.9073" fill="black"/>
</g>
<defs>
<clipPath id="clip0_404_73">
<rect width="12" height="12" fill="white" transform="translate(0.5)"/>
</clipPath>
</defs>
</svg>
