<svg width="10" height="12" viewBox="0 0 10 12" fill="none" xmlns="http://www.w3.org/2000/svg">
<g clip-path="url(#clip0_404_64)">
<path d="M4.9945 11.9696L1.33185 11.0083L0.515625 2.35229H9.48433L8.66727 11.0069L4.9945 11.9696Z" fill="#264DE4"/>
<path d="M7.96779 10.4558L8.66599 3.06006H5V11.2338L7.96779 10.4558Z" fill="#2965F1"/>
<path d="M2.38679 6.27044L2.48741 7.33205H4.99999V6.27044H2.38679ZM2.18457 4.1217L2.28663 5.18332H4.99999V4.1217H2.18457ZM4.99999 9.02758L4.99507 9.02881L3.74463 8.70956L3.66468 7.86288H2.53757L2.69486 9.52978L4.99482 10.1334L4.99999 10.1321V9.02758Z" fill="#EBEBEB"/>
<path d="M2.62646 0H3.98631V0.537706H3.19515V1.07541H3.98638V1.61309H2.62646V0ZM4.25831 0H5.61819V0.467568H4.827V0.561075H5.61819V1.63649H4.25835V1.14548H5.04954V1.05198H4.25828L4.25831 0ZM5.8902 0H7.25007V0.467568H6.45888V0.561075H7.25007V1.63649H5.8902V1.14548H6.68139V1.05198H5.89023L5.8902 0Z" fill="white"/>
<path d="M7.60602 6.27044L7.8087 4.1217H4.99613V5.18332H6.57823L6.47607 6.27044H4.99613V7.33205H6.37872L6.24836 8.7089L4.99609 9.02847V10.1329L7.29788 9.52978L7.31475 9.35041L7.57864 6.55551L7.60602 6.27044Z" fill="white"/>
</g>
<defs>
<clipPath id="clip0_404_64">
<rect width="9" height="12" fill="white" transform="translate(0.5)"/>
</clipPath>
</defs>
</svg>
