<svg width="9" height="12" viewBox="0 0 9 12" fill="none" xmlns="http://www.w3.org/2000/svg">
<g clip-path="url(#clip0_404_57)">
<path d="M8.98433 2.35229L8.16727 11.0069L4.4945 11.9696L0.831848 11.0083L0.015625 2.35229H8.98433Z" fill="#E44D26"/>
<path d="M4.5 11.2338L7.46779 10.4558L8.16599 3.06006H4.5V11.2338Z" fill="#F16529"/>
<path d="M2.91163 5.18332H4.49999V4.1217H1.68457L1.71143 4.40651L1.98741 7.33205H4.49999V6.27044H3.01425L2.91163 5.18332ZM3.16468 7.86288H2.03757L2.19486 9.52978L4.49482 10.1334L4.49999 10.1321V9.02758L4.49507 9.02881L3.24463 8.70956L3.16468 7.86288Z" fill="#EBEBEB"/>
<path d="M0.850098 0H1.42068V0.533019H1.94265V0H2.51327V1.61412H1.94268V1.07362H1.42072V1.61412H0.850133L0.850098 0ZM3.26357 0.53528H2.76133V0H4.33682V0.53528H3.83427V1.61412H3.26368V0.53528H3.26357ZM4.58686 0H5.1818L5.54778 0.567158L5.91341 0H6.5086V1.61412H5.94034V0.814072L5.54778 1.38798H5.53794L5.14514 0.814072V1.61412H4.58686V0ZM6.79256 0H7.36332V1.0806H8.16573V1.61412H6.79252L6.79256 0Z" fill="white"/>
<path d="M4.49613 7.33205H5.87872L5.74836 8.7089L4.49609 9.02847V10.1329L6.79788 9.52978L6.81475 9.35041L7.07864 6.55551L7.10602 6.27044H4.49613V7.33205ZM4.49613 5.18073V5.18332H7.20819L7.23069 4.94472L7.28187 4.40651L7.3087 4.1217H4.49613V5.18073Z" fill="white"/>
</g>
<defs>
<clipPath id="clip0_404_57">
<rect width="9" height="12" fill="white"/>
</clipPath>
</defs>
</svg>
