<svg width="9" height="12" viewBox="0 0 9 12" fill="none" xmlns="http://www.w3.org/2000/svg">
<g clip-path="url(#clip0_404_82)">
<path d="M2.5 12C3.604 12 4.5 11.104 4.5 10V8H2.5C1.396 8 0.5 8.896 0.5 10C0.5 11.104 1.396 12 2.5 12Z" fill="#0ACF83"/>
<path d="M0.5 6C0.5 4.896 1.396 4 2.5 4H4.5V8H2.5C1.396 8 0.5 7.104 0.5 6Z" fill="#A259FF"/>
<path d="M0.5 2C0.5 0.896 1.396 0 2.5 0H4.5V4H2.5C1.396 4 0.5 3.104 0.5 2Z" fill="#F24E1E"/>
<path d="M4.5 0H6.5C7.604 0 8.5 0.896 8.5 2C8.5 3.104 7.604 4 6.5 4H4.5V0Z" fill="#FF7262"/>
<path d="M8.5 6C8.5 7.104 7.604 8 6.5 8C5.396 8 4.5 7.104 4.5 6C4.5 4.896 5.396 4 6.5 4C7.604 4 8.5 4.896 8.5 6Z" fill="#1ABCFE"/>
</g>
<defs>
<clipPath id="clip0_404_82">
<rect width="8" height="12" fill="white" transform="translate(0.5)"/>
</clipPath>
</defs>
</svg>
